<svg width="52" height="52" viewBox="0 0 52 52" fill="none" xmlns="http://www.w3.org/2000/svg">
<path d="M22.1584 22.5117C20.9486 22.5117 19.9935 23.595 19.9935 24.9167C19.9935 26.2383 20.9698 27.3217 22.1584 27.3217C23.3682 27.3217 24.3233 26.2383 24.3233 24.9167C24.3445 23.595 23.3682 22.5117 22.1584 22.5117ZM29.9053 22.5117C28.6955 22.5117 27.7404 23.595 27.7404 24.9167C27.7404 26.2383 28.7167 27.3217 29.9053 27.3217C31.1151 27.3217 32.0702 26.2383 32.0702 24.9167C32.0702 23.595 31.1151 22.5117 29.9053 22.5117Z" fill="white"/>
<path d="M40.2204 4.33333H11.7796C9.38123 4.33333 7.42857 6.32667 7.42857 8.79667V38.09C7.42857 40.56 9.38123 42.5533 11.7796 42.5533H35.8482L34.7233 38.545L37.44 41.1233L40.0082 43.55L44.5714 47.6667V8.79667C44.5714 6.32667 42.6188 4.33333 40.2204 4.33333ZM32.0278 32.63C32.0278 32.63 31.2637 31.6983 30.6269 30.875C33.4073 30.0733 34.4686 28.2967 34.4686 28.2967C33.5984 28.8817 32.7706 29.2933 32.0278 29.575C30.9665 30.03 29.9478 30.3333 28.9502 30.5067C26.9127 30.8967 25.0449 30.7883 23.4531 30.485C22.2433 30.2467 21.2033 29.9 20.3331 29.5533C19.8449 29.3583 19.3143 29.12 18.7837 28.8167C18.72 28.7733 18.6563 28.7517 18.5927 28.7083C18.5502 28.6867 18.529 28.665 18.5078 28.6433C18.1257 28.4267 17.9135 28.275 17.9135 28.275C17.9135 28.275 18.9322 30.0083 21.6278 30.8317C20.991 31.655 20.2057 32.63 20.2057 32.63C15.5151 32.4783 13.7322 29.3367 13.7322 29.3367C13.7322 22.36 16.7886 16.705 16.7886 16.705C19.8449 14.365 22.7527 14.43 22.7527 14.43L22.9649 14.69C19.1445 15.8167 17.3829 17.5283 17.3829 17.5283C17.3829 17.5283 17.8498 17.2683 18.6351 16.9C20.9061 15.8817 22.7102 15.6 23.4531 15.535C23.5804 15.5133 23.6865 15.4917 23.8139 15.4917C25.1086 15.3183 26.5731 15.275 28.1012 15.4483C30.1175 15.6867 32.2824 16.2933 34.4898 17.5283C34.4898 17.5283 32.8131 15.9033 29.2049 14.7767L29.502 14.43C29.502 14.43 32.4098 14.365 35.4661 16.705C35.4661 16.705 38.5224 22.36 38.5224 29.3367C38.5224 29.3367 36.7184 32.4783 32.0278 32.63Z" fill="white"/>
</svg>
